M48
;Layer_Color=9474304
;FILE_FORMAT=2:5
INCH,LZ
;TYPE=PLATED
T2F00S00C0.00591
T3F00S00C0.01181
T4F00S00C0.04331
%
T02
X0016357Y0027945
X0019747
X0022977
X0022457Y0035032
X0019117
X0015497
X0039998Y0035032
X0043228
X0046618
X0050078
X0052558
X0055118
X0057874Y0035898
X0059958Y0035622
X0059998Y0032926
Y0030046
X0059958Y0027354
X0057874Y0027079
X0055518Y0027945
X0053348
X0050948
X0047478
X0043858
X0040518
X0012897Y0027945
X0010417
X0007857
X00051Y0027079
X0003017Y0027354
X0002977Y003005
Y003293
X0003017Y0035622
X00051Y0035898
X0007457Y0035032
X0009627
X0012027
T03
X0016732Y0002461
X0019685Y0006693
X0027756Y0006299
Y0009941
X0023622Y0011811
Y001939
X0020472Y0020866
X0015748Y0020731
Y0011811
X0027953Y0018898
X0028445Y0021655
X0032382Y0020966
X0036122Y0022344
X0029912Y0031486
X0029518Y003938
X0026181Y003937
X0026476Y0036614
X0025591Y0045285
X0029528Y0045276
X0033455Y0045285
X0037392Y0045285
X00375Y0051279
X0047244
X0049213Y0047244
X0051181Y0043307
X0047244
X0036713Y003938
X0033455
X0025197Y0051279
X0027559Y0056299
X0035433Y0059055
X0043307
X0049107Y0061048
X0019685Y0059055
X0015748Y0043307
X005315Y0021654
X0056004Y0015453
X005315Y0009449
X0045276Y0003937
X0009843Y0019685
Y0043307
Y0047244
Y0051181
T04
X0055118Y0003937
Y0059055
X0007874
Y0003937
M30
