M48
;Layer_Color=9474304
;FILE_FORMAT=2:5
INCH,LZ
;TYPE=PLATED
T1F00S00C0.00394
%
T01
X0024982Y0029126
X0025984
Y0030701
Y0032276
Y003385
X0024982
X0029134Y0034142
Y0028835
Y002726
X0030709
X0032284
X0033858Y002726
X0033858Y0028835
X0035433
Y002726
X0037008Y0029126
X0037992
X0037008Y0030701
Y0032276
Y0033851
X0037992
X0035433Y0034142
X0033858Y0030701
X0027559Y002726
M30
