M48
;Layer_Color=9474304
;FILE_FORMAT=2:5
INCH,LZ
;TYPE=PLATED
T1F00S00C0.00787
T2F00S00C0.01181
T3F00S00C0.02362
T5F00S00C0.02913
T7F00S00C0.03386
;TYPE=NON_PLATED
T8F00S00C0.09843
%
T01
X0003937Y0028346
X0007087
Y0031496
X0003937
X0003937Y0034646
X0007087
X0010236
X0013386
X0013386Y0031496
X0010236
Y0028346
X0013386
X0016535
X0019685
X0022835
Y0031496
X0019685
X0016535
X0016535Y0034646
X0019685
X0022835
Y0044094
Y0047244
X0019685
Y0044094
X0016535
X0013386
Y0047244
X0010236Y0047244
X0007087
X0003937
X0003937Y0050394
X0007087Y0053543
X0010236Y0053642
Y0050394
Y0044094
X0007087
X0003937
X0007087Y0037795
X0010236Y0025098
X0016535Y0047244
Y0050394
X0019685
X0022835
X0014764Y0063189
X0042421Y0069291
X0049214Y0062993
X0052362Y0062992
X0052362Y0059842
X0049213
X0052362Y0056693
X0055512
Y0053543
X0052362
Y0050394
X0055512
Y0047244
X0055512Y0044094
X0052362
Y0040945
X0049213
Y0037795
Y0034646
X0052362Y0034646
X0055512
Y0037795
X0058661Y0037795
X0061811
X0064961
X006811
Y0034646
X0064961Y0034646
Y0031496
X0061811
X0058661
X0061811Y0034646
Y0040945
X0058661Y0040945
X0058661Y0047244
X0061811Y0047244
X0064961
X006811
X006811Y0050394
X0064961
X0061811
X006191Y0053543
X0058661
Y0056693
Y0059842
X0061811
Y0062992
X0064961
Y0059842
X006811Y0059842
X007126
X007126Y0056693
X006811
X006811Y0053543
X007126Y0047244
X007126Y0044094
X006811Y0044094
Y0040945
X0064961Y0044094
X0074409Y0044094
X007441Y0040945
X0077559Y0040945
Y0037795
Y0034646
X007441
X007441Y0037795
X007126
Y0034646
X006811Y0031496
X0077559
X0080709
Y0034646
Y0037795
X0077559Y0044094
X0080709Y0047244
X0080709Y0050394
X007441
X007441Y0056693
Y0059842
Y0062992
X0077559
X0077559Y0059842
X0080709
Y0062992
X007126
X006811
X0085138Y0055512
X0052362Y0047244
X0049213Y0050394
X0052362Y0031496
X0075394Y009311
X0075429Y0097244
X0000787Y0050394
X0000787Y0047244
Y0044094
X-0000887Y0042323
X-0002362Y0034646
X0000787
X0000787Y0031496
X-0002362
Y0028346
X0000787
T02
X0003937Y-0010827
X0011811
X0009338Y0008465
X0008071Y0020472
X0011614
X0014764Y0018406
X0019882Y0020472
X0023425
X0030709
X0042717Y0020571
X0049409Y0020866
Y0024409
X0054331Y0024213
X0054331Y0020866
X005935
Y0024409
X0062697Y002313
X0066734Y0026574
X0070177Y0026772
X0073425Y0024311
Y0021161
Y0018012
X0070374Y001939
X0068898Y0012106
X0072441
Y0008563
X0068898
Y000502
X0077165Y0004528
Y0008071
X0083563Y0006594
X0081693Y0
X0077165Y-0002657
Y-0005512
X0094488Y-0010827
X0094784Y0011713
Y0015846
Y0019193
Y0022146
Y0025098
X0091535Y002874
Y0032283
Y0035433
Y0038976
X0091535Y0042126
X0086024
X0086024Y0038976
Y0035433
Y0032283
Y002874
X008809Y0013878
X0087795Y0054921
X0091339
X0094587
X0094882Y006309
Y0066535
X0093898Y0070177
X0086417Y0072835
X0084153Y0079921
X0076673Y0072835
X0066535Y0072539
X0062992
X0062992Y0067618
X0066535
X0062598Y0081595
X0062106Y0086221
X0053642Y0091142
X0054035Y0096752
X0048819Y0102756
X0045669Y0104331
X0042913
Y0100394
X0045669
X0038681Y0104429
X0041831Y0111122
X0048327Y0113583
X0053347Y0111417
X0059055Y0114173
X0072047
X0077756Y0103248
X0077854Y0100394
X0078051Y0091437
X0066929Y0096653
X0047244Y0086614
X004626Y0072638
X0051673Y0074508
Y0070669
X0043406Y0062598
X003435
Y0056693
Y0052756
Y0048819
X0038484Y0045768
Y0041831
X0043209Y0042028
Y0045768
Y0048819
X0042717Y0038484
X0040846Y0077953
X0032677Y0076476
Y0082382
Y0085236
X003248Y0069882
X0023228Y0069488
Y0072638
X001752Y0061713
Y0058169
X0012205Y0058169
Y0061713
X0005118Y0061811
Y0058268
X0005906Y0068898
X0003937Y0114173
X0011811
X0019685
X0035433
X0022638Y0008465
X0000394Y001437
X0Y0020374
X-0003543
X-0005512Y0024409
Y003622
X-0000787Y0039469
X0002854
X-0005512Y0045276
Y0055118
Y0064961
Y0074803
X-0001969Y0077362
X0001476Y0074606
X-0005512Y0084646
Y0094488
Y0104331
X-0003937Y0114173
X-0005512Y0007874
X-0003937Y-0010827
T03
X0027776Y0009311
X0032776
X0037776
X0042776
X0047776
X0052776
X0057776
X0062776
Y0014311
X0057776
X0052776
X0047776
X0042776
X0037776
X0032776
X0027776
T05
X0006437Y0080551
Y0085551
Y0090551
Y0095551
Y0100551
X0001437
Y0095551
Y0090551
Y0085551
Y0080551
T07
X0017717Y-0007874
Y0
X0025591
X0033465
Y-0007874
X0025591
X0041339
X0049213
Y0
X0041339
X0057087
X0064961
Y-0007874
X0057087
X0072835
Y0
T08
X0090551Y0
X0064961Y0108268
X0025591
X0Y0
M30
